<svg width="50" height="50" viewBox="0 0 50 50" fill="none" xmlns="http://www.w3.org/2000/svg">
<path d="M24.9998 36.4583C27.604 36.4583 29.8175 35.5469 31.6405 33.724C33.4634 31.901 34.3748 29.6875 34.3748 27.0833C34.3748 24.4792 33.4634 22.2656 31.6405 20.4427C29.8175 18.6198 27.604 17.7083 24.9998 17.7083C22.3957 17.7083 20.1821 18.6198 18.3592 20.4427C16.5363 22.2656 15.6248 24.4792 15.6248 27.0833C15.6248 29.6875 16.5363 31.901 18.3592 33.724C20.1821 35.5469 22.3957 36.4583 24.9998 36.4583ZM24.9998 32.2917C23.5415 32.2917 22.3089 31.7882 21.3019 30.7812C20.295 29.7743 19.7915 28.5417 19.7915 27.0833C19.7915 25.625 20.295 24.3924 21.3019 23.3854C22.3089 22.3785 23.5415 21.875 24.9998 21.875C26.4582 21.875 27.6908 22.3785 28.6978 23.3854C29.7047 24.3924 30.2082 25.625 30.2082 27.0833C30.2082 28.5417 29.7047 29.7743 28.6978 30.7812C27.6908 31.7882 26.4582 32.2917 24.9998 32.2917ZM8.33317 43.75C7.18734 43.75 6.20643 43.342 5.39046 42.526C4.57449 41.7101 4.1665 40.7292 4.1665 39.5833V14.5833C4.1665 13.4375 4.57449 12.4566 5.39046 11.6406C6.20643 10.8247 7.18734 10.4167 8.33317 10.4167H14.8957L18.7498 6.25H31.2498L35.104 10.4167H41.6665C42.8123 10.4167 43.7932 10.8247 44.6092 11.6406C45.4252 12.4566 45.8332 13.4375 45.8332 14.5833V39.5833C45.8332 40.7292 45.4252 41.7101 44.6092 42.526C43.7932 43.342 42.8123 43.75 41.6665 43.75H8.33317ZM8.33317 39.5833H41.6665V14.5833H33.229L29.4269 10.4167H20.5728L16.7707 14.5833H8.33317V39.5833Z" fill="#209DD5"/>
</svg>
